<svg xmlns="http://www.w3.org/2000/svg" viewBox="0 0 1536 754" preserveAspectRatio="xMidYMid"
    width="1536" height="754"
    style="opacity:0.3">
    <g data-idx="1">
        <path fill="rgb(203, 228, 255)"
            d="M0.00 0.00L-23.04 39.91L23.04 39.91zM138.24 0.00L184.32 0.00L161.28 39.91zM230.40 0.00L276.48 0.00L253.44 39.91zM276.48 0.00L253.44 39.91L299.52 39.91zM276.48 0.00L322.56 0.00L299.52 39.91zM322.56 0.00L299.52 39.91L345.60 39.91zM414.72 0.00L391.68 39.91L437.76 39.91zM414.72 0.00L460.80 0.00L437.76 39.91zM599.04 0.00L576.00 39.91L622.08 39.91zM599.04 0.00L645.12 0.00L622.08 39.91zM737.28 0.00L714.24 39.91L760.32 39.91zM783.36 0.00L760.32 39.91L806.40 39.91zM921.60 0.00L967.68 0.00L944.64 39.91zM967.68 0.00L944.64 39.91L990.72 39.91zM1105.92 0.00L1082.88 39.91L1128.96 39.91zM-69.12 39.91L-23.04 39.91L-46.08 79.81zM-23.04 39.91L-46.08 79.81L0.00 79.81zM23.04 39.91L69.12 39.91L46.08 79.81zM69.12 39.91L115.20 39.91L92.16 79.81zM207.36 39.91L253.44 39.91L230.40 79.81zM253.44 39.91L299.52 39.91L276.48 79.81zM299.52 39.91L276.48 79.81L322.56 79.81zM391.68 39.91L368.64 79.81L414.72 79.81zM437.76 39.91L414.72 79.81L460.80 79.81zM483.84 39.91L460.80 79.81L506.88 79.81zM529.92 39.91L506.88 79.81L552.96 79.81zM529.92 39.91L576.00 39.91L552.96 79.81zM760.32 39.91L806.40 39.91L783.36 79.81zM898.56 39.91L944.64 39.91L921.60 79.81zM1036.80 39.91L1013.76 79.81L1059.84 79.81zM46.08 79.81L23.04 119.72L69.12 119.72zM138.24 79.81L115.20 119.72L161.28 119.72zM184.32 79.81L230.40 79.81L207.36 119.72zM322.56 79.81L299.52 119.72L345.60 119.72zM368.64 79.81L345.60 119.72L391.68 119.72zM368.64 79.81L414.72 79.81L391.68 119.72zM414.72 79.81L460.80 79.81L437.76 119.72zM460.80 79.81L437.76 119.72L483.84 119.72zM552.96 79.81L599.04 79.81L576.00 119.72zM921.60 79.81L967.68 79.81L944.64 119.72zM967.68 79.81L944.64 119.72L990.72 119.72zM1152.00 79.81L1198.08 79.81L1175.04 119.72zM-23.04 119.72L-46.08 159.63L0.00 159.63zM23.04 119.72L0.00 159.63L46.08 159.63zM161.28 119.72L138.24 159.63L184.32 159.63zM207.36 119.72L253.44 119.72L230.40 159.63zM253.44 119.72L299.52 119.72L276.48 159.63zM299.52 119.72L276.48 159.63L322.56 159.63zM437.76 119.72L483.84 119.72L460.80 159.63zM483.84 119.72L460.80 159.63L506.88 159.63zM576.00 119.72L622.08 119.72L599.04 159.63zM714.24 119.72L691.20 159.63L737.28 159.63zM898.56 119.72L944.64 119.72L921.60 159.63zM944.64 119.72L921.60 159.63L967.68 159.63zM1451.52 119.72L1428.48 159.63L1474.56 159.63zM1497.60 119.72L1543.68 119.72L1520.64 159.63zM92.16 159.63L138.24 159.63L115.20 199.53zM184.32 159.63L161.28 199.53L207.36 199.53zM230.40 159.63L207.36 199.53L253.44 199.53zM322.56 159.63L368.64 159.63L345.60 199.53zM368.64 159.63L345.60 199.53L391.68 199.53zM368.64 159.63L414.72 159.63L391.68 199.53zM552.96 159.63L529.92 199.53L576.00 199.53zM599.04 159.63L576.00 199.53L622.08 199.53zM645.12 159.63L622.08 199.53L668.16 199.53zM737.28 159.63L714.24 199.53L760.32 199.53zM783.36 159.63L760.32 199.53L806.40 199.53zM829.44 159.63L806.40 199.53L852.48 199.53zM875.52 159.63L921.60 159.63L898.56 199.53zM967.68 159.63L1013.76 159.63L990.72 199.53zM-69.12 199.53L-23.04 199.53L-46.08 239.44zM-23.04 199.53L-46.08 239.44L0.00 239.44zM-23.04 199.53L23.04 199.53L0.00 239.44zM69.12 199.53L46.08 239.44L92.16 239.44zM69.12 199.53L115.20 199.53L92.16 239.44zM115.20 199.53L92.16 239.44L138.24 239.44zM483.84 199.53L529.92 199.53L506.88 239.44zM529.92 199.53L506.88 239.44L552.96 239.44zM760.32 199.53L737.28 239.44L783.36 239.44zM852.48 199.53L829.44 239.44L875.52 239.44zM944.64 199.53L990.72 199.53L967.68 239.44zM990.72 199.53L967.68 239.44L1013.76 239.44zM1543.68 199.53L1520.64 239.44L1566.72 239.44zM92.16 239.44L138.24 239.44L115.20 279.35zM138.24 239.44L115.20 279.35L161.28 279.35zM138.24 239.44L184.32 239.44L161.28 279.35zM276.48 239.44L322.56 239.44L299.52 279.35zM506.88 239.44L483.84 279.35L529.92 279.35zM552.96 239.44L599.04 239.44L576.00 279.35zM599.04 239.44L645.12 239.44L622.08 279.35zM645.12 239.44L622.08 279.35L668.16 279.35zM-23.04 279.35L-46.08 319.25L0.00 319.25zM23.04 279.35L0.00 319.25L46.08 319.25zM115.20 279.35L92.16 319.25L138.24 319.25zM207.36 279.35L253.44 279.35L230.40 319.25zM345.60 279.35L322.56 319.25L368.64 319.25zM437.76 279.35L483.84 279.35L460.80 319.25zM576.00 279.35L552.96 319.25L599.04 319.25zM760.32 279.35L806.40 279.35L783.36 319.25zM1036.80 279.35L1013.76 319.25L1059.84 319.25zM1267.20 279.35L1244.16 319.25L1290.24 319.25zM92.16 319.25L69.12 359.16L115.20 359.16zM368.64 319.25L345.60 359.16L391.68 359.16zM414.72 319.25L391.68 359.16L437.76 359.16zM552.96 319.25L529.92 359.16L576.00 359.16zM599.04 319.25L645.12 319.25L622.08 359.16zM967.68 319.25L1013.76 319.25L990.72 359.16zM1013.76 319.25L990.72 359.16L1036.80 359.16zM-23.04 359.16L-46.08 399.06L0.00 399.06zM23.04 359.16L69.12 359.16L46.08 399.06zM115.20 359.16L92.16 399.06L138.24 399.06zM115.20 359.16L161.28 359.16L138.24 399.06zM253.44 359.16L230.40 399.06L276.48 399.06zM0.00 399.06L-23.04 438.97L23.04 438.97zM0.00 399.06L46.08 399.06L23.04 438.97zM138.24 399.06L115.20 438.97L161.28 438.97zM184.32 399.06L230.40 399.06L207.36 438.97zM322.56 399.06L299.52 438.97L345.60 438.97zM368.64 399.06L414.72 399.06L391.68 438.97zM414.72 399.06L460.80 399.06L437.76 438.97zM599.04 399.06L645.12 399.06L622.08 438.97zM645.12 399.06L691.20 399.06L668.16 438.97zM783.36 399.06L760.32 438.97L806.40 438.97zM829.44 399.06L806.40 438.97L852.48 438.97zM-23.04 438.97L23.04 438.97L0.00 478.88zM23.04 438.97L0.00 478.88L46.08 478.88zM115.20 438.97L92.16 478.88L138.24 478.88zM161.28 438.97L138.24 478.88L184.32 478.88zM161.28 438.97L207.36 438.97L184.32 478.88zM207.36 438.97L184.32 478.88L230.40 478.88zM299.52 438.97L276.48 478.88L322.56 478.88zM299.52 438.97L345.60 438.97L322.56 478.88zM345.60 438.97L322.56 478.88L368.64 478.88zM345.60 438.97L391.68 438.97L368.64 478.88zM483.84 438.97L529.92 438.97L506.88 478.88zM622.08 438.97L668.16 438.97L645.12 478.88zM760.32 438.97L806.40 438.97L783.36 478.88zM806.40 438.97L783.36 478.88L829.44 478.88zM806.40 438.97L852.48 438.97L829.44 478.88zM322.56 478.88L368.64 478.88L345.60 518.78zM552.96 478.88L599.04 478.88L576.00 518.78zM737.28 478.88L783.36 478.88L760.32 518.78zM783.36 478.88L760.32 518.78L806.40 518.78zM1152.00 478.88L1198.08 478.88L1175.04 518.78zM-23.04 518.78L-46.08 558.69L0.00 558.69zM161.28 518.78L138.24 558.69L184.32 558.69zM299.52 518.78L345.60 518.78L322.56 558.69zM483.84 518.78L529.92 518.78L506.88 558.69zM668.16 518.78L714.24 518.78L691.20 558.69zM760.32 518.78L737.28 558.69L783.36 558.69zM-46.08 558.69L0.00 558.69L-23.04 598.60zM46.08 558.69L23.04 598.60L69.12 598.60zM46.08 558.69L92.16 558.69L69.12 598.60zM138.24 558.69L115.20 598.60L161.28 598.60zM230.40 558.69L276.48 558.69L253.44 598.60zM322.56 558.69L368.64 558.69L345.60 598.60zM368.64 558.69L345.60 598.60L391.68 598.60zM506.88 558.69L483.84 598.60L529.92 598.60zM875.52 558.69L852.48 598.60L898.56 598.60zM115.20 598.60L161.28 598.60L138.24 638.50zM391.68 598.60L437.76 598.60L414.72 638.50zM437.76 598.60L414.72 638.50L460.80 638.50zM668.16 598.60L645.12 638.50L691.20 638.50zM1128.96 598.60L1105.92 638.50L1152.00 638.50zM0.00 638.50L46.08 638.50L23.04 678.41zM46.08 638.50L92.16 638.50L69.12 678.41zM138.24 638.50L115.20 678.41L161.28 678.41zM138.24 638.50L184.32 638.50L161.28 678.41zM184.32 638.50L230.40 638.50L207.36 678.41zM552.96 638.50L529.92 678.41L576.00 678.41zM645.12 638.50L691.20 638.50L668.16 678.41zM737.28 638.50L714.24 678.41L760.32 678.41zM-69.12 678.41L-23.04 678.41L-46.08 718.32zM23.04 678.41L69.12 678.41L46.08 718.32zM299.52 678.41L276.48 718.32L322.56 718.32zM391.68 678.41L368.64 718.32L414.72 718.32zM0.00 718.32L46.08 718.32L23.04 758.22zM92.16 718.32L69.12 758.22L115.20 758.22zM230.40 718.32L207.36 758.22L253.44 758.22zM460.80 718.32L506.88 718.32L483.84 758.22z"
            data-idx="2">

        </path>
        <path fill="rgb(203, 228, 255)"
            d="M1451.52 199.53L1428.48 239.44L1474.56 239.44zM391.68 279.35L368.64 319.25L414.72 319.25zM483.84 279.35L529.92 279.35L506.88 319.25zM806.40 279.35L783.36 319.25L829.44 319.25zM138.24 319.25L184.32 319.25L161.28 359.16zM829.44 319.25L875.52 319.25L852.48 359.16zM1198.08 319.25L1175.04 359.16L1221.12 359.16zM437.76 438.97L414.72 478.88L460.80 478.88zM576.00 438.97L552.96 478.88L599.04 478.88zM1036.80 438.97L1082.88 438.97L1059.84 478.88zM1313.28 438.97L1290.24 478.88L1336.32 478.88zM1290.24 558.69L1267.20 598.60L1313.28 598.60zM1036.80 678.41L1013.76 718.32L1059.84 718.32z"
            data-idx="4">

        </path>
        <path fill="rgb(191, 222, 255)"
            d="M829.44 0.00L875.52 0.00L852.48 39.91zM1013.76 0.00L1059.84 0.00L1036.80 39.91zM1428.48 79.81L1474.56 79.81L1451.52 119.72zM714.24 199.53L760.32 199.53L737.28 239.44zM414.72 239.44L391.68 279.35L437.76 279.35zM345.60 359.16L322.56 399.06L368.64 399.06zM852.48 438.97L829.44 478.88L875.52 478.88z"
            data-idx="6">

        </path>
        <path fill="rgb(172, 211, 255)"
            d="M1036.80 39.91L1082.88 39.91L1059.84 79.81zM69.12 119.72L115.20 119.72L92.16 159.63zM852.48 119.72L898.56 119.72L875.52 159.63zM345.60 199.53L391.68 199.53L368.64 239.44zM391.68 199.53L368.64 239.44L414.72 239.44zM552.96 319.25L599.04 319.25L576.00 359.16zM622.08 438.97L599.04 478.88L645.12 478.88zM414.72 638.50L391.68 678.41L437.76 678.41zM622.08 678.41L599.04 718.32L645.12 718.32zM1198.08 718.32L1175.04 758.22L1221.12 758.22z"
            data-idx="8">

        </path>
        <path fill="rgb(149, 197, 255)"
            d="M1059.84 0.00L1036.80 39.91L1082.88 39.91zM1290.24 79.81L1336.32 79.81L1313.28 119.72zM1336.32 79.81L1382.40 79.81L1359.36 119.72zM806.40 119.72L852.48 119.72L829.44 159.63zM1059.84 239.44L1105.92 239.44L1082.88 279.35zM645.12 319.25L622.08 359.16L668.16 359.16zM1059.84 399.06L1105.92 399.06L1082.88 438.97zM668.16 438.97L645.12 478.88L691.20 478.88zM230.40 478.88L276.48 478.88L253.44 518.78zM184.32 558.69L161.28 598.60L207.36 598.60zM230.40 558.69L207.36 598.60L253.44 598.60zM552.96 558.69L529.92 598.60L576.00 598.60zM483.84 678.41L529.92 678.41L506.88 718.32zM1152.00 718.32L1198.08 718.32L1175.04 758.22z"
            data-idx="10">

        </path>
        <path fill="rgb(131, 186, 255)"
            d="M1082.88 39.91L1128.96 39.91L1105.92 79.81zM1128.96 39.91L1105.92 79.81L1152.00 79.81zM1359.36 279.35L1336.32 319.25L1382.40 319.25zM1244.16 319.25L1290.24 319.25L1267.20 359.16zM1566.72 319.25L1543.68 359.16L1589.76 359.16zM345.60 359.16L391.68 359.16L368.64 399.06zM1036.80 359.16L1082.88 359.16L1059.84 399.06zM1105.92 638.50L1082.88 678.41L1128.96 678.41zM852.48 678.41L898.56 678.41L875.52 718.32zM506.88 718.32L552.96 718.32L529.92 758.22z"
            data-idx="12">

        </path>
        <path fill="rgb(125, 182, 255)"
            d="M1059.84 79.81L1036.80 119.72L1082.88 119.72zM1221.12 119.72L1198.08 159.63L1244.16 159.63zM760.32 199.53L806.40 199.53L783.36 239.44zM1336.32 239.44L1382.40 239.44L1359.36 279.35zM253.44 438.97L230.40 478.88L276.48 478.88zM714.24 438.97L691.20 478.88L737.28 478.88zM599.04 558.69L576.00 598.60L622.08 598.60zM967.68 558.69L944.64 598.60L990.72 598.60zM207.36 598.60L184.32 638.50L230.40 638.50zM806.40 598.60L852.48 598.60L829.44 638.50zM552.96 638.50L599.04 638.50L576.00 678.41zM207.36 678.41L253.44 678.41L230.40 718.32zM414.72 718.32L391.68 758.22L437.76 758.22z"
            data-idx="14">

        </path>
        <path fill="rgb(111, 173, 255)"
            d="M1105.92 79.81L1082.88 119.72L1128.96 119.72zM529.92 199.53L576.00 199.53L552.96 239.44zM391.68 279.35L437.76 279.35L414.72 319.25zM437.76 279.35L414.72 319.25L460.80 319.25zM1313.28 279.35L1290.24 319.25L1336.32 319.25zM1152.00 319.25L1128.96 359.16L1175.04 359.16zM576.00 438.97L622.08 438.97L599.04 478.88zM1497.60 438.97L1474.56 478.88L1520.64 478.88zM829.44 478.88L806.40 518.78L852.48 518.78zM253.44 518.78L230.40 558.69L276.48 558.69zM576.00 598.60L552.96 638.50L599.04 638.50zM599.04 638.50L576.00 678.41L622.08 678.41z"
            data-idx="16">

        </path>
        <path fill="rgb(96, 164, 255)"
            d="M1566.72 0.00L1543.68 39.91L1589.76 39.91zM1405.44 39.91L1451.52 39.91L1428.48 79.81zM875.52 79.81L852.48 119.72L898.56 119.72zM1105.92 79.81L1152.00 79.81L1128.96 119.72zM990.72 119.72L967.68 159.63L1013.76 159.63zM1152.00 159.63L1128.96 199.53L1175.04 199.53zM1336.32 159.63L1313.28 199.53L1359.36 199.53zM1474.56 159.63L1520.64 159.63L1497.60 199.53zM1520.64 159.63L1497.60 199.53L1543.68 199.53zM898.56 199.53L944.64 199.53L921.60 239.44zM944.64 279.35L921.60 319.25L967.68 319.25zM1290.24 319.25L1336.32 319.25L1313.28 359.16zM1152.00 399.06L1198.08 399.06L1175.04 438.97zM852.48 438.97L898.56 438.97L875.52 478.88zM898.56 438.97L875.52 478.88L921.60 478.88zM1267.20 438.97L1244.16 478.88L1290.24 478.88zM1405.44 518.78L1451.52 518.78L1428.48 558.69zM967.68 558.69L1013.76 558.69L990.72 598.60zM506.88 638.50L483.84 678.41L529.92 678.41zM1198.08 638.50L1175.04 678.41L1221.12 678.41zM1428.48 638.50L1405.44 678.41L1451.52 678.41zM529.92 678.41L506.88 718.32L552.96 718.32zM0.00 718.32L-23.04 758.22L23.04 758.22zM184.32 718.32L161.28 758.22L207.36 758.22z"
            data-idx="18">

        </path>
        <path fill="rgb(80, 154, 255)"
            d="M1175.04 119.72L1152.00 159.63L1198.08 159.63zM1267.20 119.72L1313.28 119.72L1290.24 159.63zM1313.28 119.72L1290.24 159.63L1336.32 159.63zM1105.92 159.63L1152.00 159.63L1128.96 199.53zM1520.64 159.63L1566.72 159.63L1543.68 199.53zM1152.00 239.44L1198.08 239.44L1175.04 279.35zM921.60 319.25L967.68 319.25L944.64 359.16zM1198.08 399.06L1175.04 438.97L1221.12 438.97zM1474.56 399.06L1520.64 399.06L1497.60 438.97zM1128.96 438.97L1105.92 478.88L1152.00 478.88zM0.00 478.88L-23.04 518.78L23.04 518.78zM460.80 478.88L506.88 478.88L483.84 518.78zM1428.48 558.69L1405.44 598.60L1451.52 598.60zM1428.48 638.50L1474.56 638.50L1451.52 678.41zM1474.56 638.50L1451.52 678.41L1497.60 678.41zM1175.04 678.41L1152.00 718.32L1198.08 718.32zM1359.36 678.41L1405.44 678.41L1382.40 718.32zM1474.56 718.32L1520.64 718.32L1497.60 758.22z"
            data-idx="20">

        </path>
        <path fill="rgb(77, 152, 255)"
            d="M1359.36 119.72L1336.32 159.63L1382.40 159.63zM576.00 359.16L552.96 399.06L599.04 399.06zM1497.60 359.16L1543.68 359.16L1520.64 399.06zM829.44 399.06L875.52 399.06L852.48 438.97zM1175.04 438.97L1221.12 438.97L1198.08 478.88zM691.20 478.88L668.16 518.78L714.24 518.78zM1474.56 558.69L1520.64 558.69L1497.60 598.60zM437.76 598.60L483.84 598.60L460.80 638.50zM944.64 598.60L921.60 638.50L967.68 638.50zM599.04 638.50L645.12 638.50L622.08 678.41zM576.00 678.41L552.96 718.32L599.04 718.32zM599.04 718.32L645.12 718.32L622.08 758.22z"
            data-idx="22">

        </path>
        <path fill="rgb(76, 151, 255)"
            d="M1451.52 39.91L1497.60 39.91L1474.56 79.81zM1013.76 159.63L1059.84 159.63L1036.80 199.53zM1036.80 199.53L1013.76 239.44L1059.84 239.44zM1290.24 239.44L1336.32 239.44L1313.28 279.35zM714.24 279.35L760.32 279.35L737.28 319.25zM506.88 399.06L483.84 438.97L529.92 438.97zM967.68 399.06L1013.76 399.06L990.72 438.97zM1359.36 438.97L1405.44 438.97L1382.40 478.88zM1405.44 438.97L1451.52 438.97L1428.48 478.88zM921.60 478.88L967.68 478.88L944.64 518.78zM1175.04 598.60L1152.00 638.50L1198.08 638.50zM829.44 638.50L875.52 638.50L852.48 678.41zM1036.80 678.41L1082.88 678.41L1059.84 718.32zM1082.88 678.41L1059.84 718.32L1105.92 718.32zM691.20 718.32L737.28 718.32L714.24 758.22zM737.28 718.32L714.24 758.22L760.32 758.22zM1152.00 718.32L1128.96 758.22L1175.04 758.22z"
            data-idx="24">

        </path>
        <path fill="rgb(53, 140, 255)"
            d="M622.08 119.72L668.16 119.72L645.12 159.63zM737.28 239.44L714.24 279.35L760.32 279.35zM1520.64 239.44L1497.60 279.35L1543.68 279.35zM898.56 359.16L944.64 359.16L921.60 399.06zM714.24 438.97L760.32 438.97L737.28 478.88zM852.48 518.78L829.44 558.69L875.52 558.69zM276.48 638.50L253.44 678.41L299.52 678.41zM1382.40 718.32L1428.48 718.32L1405.44 758.22z"
            data-idx="26">

        </path>
        <path fill="rgb(32, 130, 255)"
            d="M967.68 79.81L1013.76 79.81L990.72 119.72zM714.24 119.72L760.32 119.72L737.28 159.63zM1244.16 239.44L1221.12 279.35L1267.20 279.35zM1336.32 239.44L1313.28 279.35L1359.36 279.35zM760.32 279.35L737.28 319.25L783.36 319.25zM1474.56 478.88L1451.52 518.78L1497.60 518.78zM645.12 558.69L691.20 558.69L668.16 598.60zM691.20 558.69L668.16 598.60L714.24 598.60zM1244.16 638.50L1221.12 678.41L1267.20 678.41zM437.76 678.41L483.84 678.41L460.80 718.32zM645.12 718.32L691.20 718.32L668.16 758.22zM1336.32 718.32L1382.40 718.32L1359.36 758.22z"
            data-idx="28">

        </path>
        <path fill="rgb(18, 126, 255)"
            d="M1198.08 0.00L1175.04 39.91L1221.12 39.91zM1290.24 0.00L1267.20 39.91L1313.28 39.91zM1428.48 0.00L1474.56 0.00L1451.52 39.91zM1520.64 79.81L1566.72 79.81L1543.68 119.72zM1082.88 199.53L1059.84 239.44L1105.92 239.44zM1082.88 199.53L1128.96 199.53L1105.92 239.44zM1175.04 199.53L1152.00 239.44L1198.08 239.44zM1359.36 199.53L1405.44 199.53L1382.40 239.44zM1244.16 239.44L1290.24 239.44L1267.20 279.35zM1428.48 239.44L1405.44 279.35L1451.52 279.35zM1566.72 239.44L1543.68 279.35L1589.76 279.35zM1359.36 279.35L1405.44 279.35L1382.40 319.25zM1497.60 279.35L1543.68 279.35L1520.64 319.25zM783.36 319.25L760.32 359.16L806.40 359.16zM1105.92 319.25L1082.88 359.16L1128.96 359.16zM483.84 359.16L460.80 399.06L506.88 399.06zM944.64 359.16L990.72 359.16L967.68 399.06zM990.72 359.16L967.68 399.06L1013.76 399.06zM1082.88 359.16L1128.96 359.16L1105.92 399.06zM1359.36 359.16L1336.32 399.06L1382.40 399.06zM1405.44 359.16L1451.52 359.16L1428.48 399.06zM1451.52 359.16L1428.48 399.06L1474.56 399.06zM921.60 399.06L967.68 399.06L944.64 438.97zM1382.40 399.06L1428.48 399.06L1405.44 438.97zM1520.64 399.06L1566.72 399.06L1543.68 438.97zM760.32 438.97L737.28 478.88L783.36 478.88zM944.64 438.97L990.72 438.97L967.68 478.88zM990.72 438.97L967.68 478.88L1013.76 478.88zM990.72 438.97L1036.80 438.97L1013.76 478.88zM1566.72 478.88L1543.68 518.78L1589.76 518.78zM1036.80 518.78L1082.88 518.78L1059.84 558.69zM1128.96 518.78L1175.04 518.78L1152.00 558.69zM1267.20 518.78L1244.16 558.69L1290.24 558.69zM1405.44 518.78L1382.40 558.69L1428.48 558.69zM23.04 598.60L69.12 598.60L46.08 638.50zM760.32 598.60L806.40 598.60L783.36 638.50zM806.40 598.60L783.36 638.50L829.44 638.50zM898.56 598.60L875.52 638.50L921.60 638.50zM990.72 598.60L1036.80 598.60L1013.76 638.50zM1036.80 598.60L1013.76 638.50L1059.84 638.50zM1221.12 598.60L1267.20 598.60L1244.16 638.50zM1313.28 598.60L1290.24 638.50L1336.32 638.50zM1359.36 598.60L1405.44 598.60L1382.40 638.50zM1451.52 598.60L1497.60 598.60L1474.56 638.50zM783.36 638.50L760.32 678.41L806.40 678.41zM783.36 638.50L829.44 638.50L806.40 678.41zM829.44 638.50L806.40 678.41L852.48 678.41zM967.68 638.50L944.64 678.41L990.72 678.41zM1152.00 638.50L1128.96 678.41L1175.04 678.41zM1290.24 638.50L1336.32 638.50L1313.28 678.41zM1336.32 638.50L1382.40 638.50L1359.36 678.41zM1474.56 638.50L1520.64 638.50L1497.60 678.41zM1520.64 638.50L1497.60 678.41L1543.68 678.41zM806.40 678.41L852.48 678.41L829.44 718.32zM1359.36 678.41L1336.32 718.32L1382.40 718.32zM1451.52 678.41L1428.48 718.32L1474.56 718.32zM1543.68 678.41L1520.64 718.32L1566.72 718.32zM737.28 718.32L783.36 718.32L760.32 758.22zM1105.92 718.32L1082.88 758.22L1128.96 758.22zM1244.16 718.32L1221.12 758.22L1267.20 758.22zM1244.16 718.32L1290.24 718.32L1267.20 758.22zM1290.24 718.32L1267.20 758.22L1313.28 758.22zM1290.24 718.32L1336.32 718.32L1313.28 758.22zM1336.32 718.32L1313.28 758.22L1359.36 758.22zM1566.72 718.32L1543.68 758.22L1589.76 758.22z"
            data-idx="30">

        </path>
        <path fill="rgb(203, 228, 255)"
            d="M0.00 0.00L46.08 0.00L23.04 39.91zM92.16 0.00L138.24 0.00L115.20 39.91zM368.64 0.00L414.72 0.00L391.68 39.91zM506.88 0.00L483.84 39.91L529.92 39.91zM506.88 0.00L552.96 0.00L529.92 39.91zM783.36 0.00L829.44 0.00L806.40 39.91zM875.52 0.00L852.48 39.91L898.56 39.91zM1244.16 0.00L1221.12 39.91L1267.20 39.91zM1290.24 0.00L1336.32 0.00L1313.28 39.91zM-23.04 39.91L23.04 39.91L0.00 79.81zM23.04 39.91L0.00 79.81L46.08 79.81zM115.20 39.91L92.16 79.81L138.24 79.81zM161.28 39.91L138.24 79.81L184.32 79.81zM161.28 39.91L207.36 39.91L184.32 79.81zM207.36 39.91L184.32 79.81L230.40 79.81zM437.76 39.91L483.84 39.91L460.80 79.81zM576.00 39.91L552.96 79.81L599.04 79.81zM576.00 39.91L622.08 39.91L599.04 79.81zM622.08 39.91L668.16 39.91L645.12 79.81zM806.40 39.91L783.36 79.81L829.44 79.81zM990.72 39.91L967.68 79.81L1013.76 79.81zM1267.20 39.91L1313.28 39.91L1290.24 79.81zM1543.68 39.91L1520.64 79.81L1566.72 79.81zM0.00 79.81L46.08 79.81L23.04 119.72zM46.08 79.81L92.16 79.81L69.12 119.72zM92.16 79.81L69.12 119.72L115.20 119.72zM92.16 79.81L138.24 79.81L115.20 119.72zM184.32 79.81L161.28 119.72L207.36 119.72zM230.40 79.81L207.36 119.72L253.44 119.72zM414.72 79.81L391.68 119.72L437.76 119.72zM460.80 79.81L506.88 79.81L483.84 119.72zM506.88 79.81L483.84 119.72L529.92 119.72zM552.96 79.81L529.92 119.72L576.00 119.72zM599.04 79.81L576.00 119.72L622.08 119.72zM691.20 79.81L668.16 119.72L714.24 119.72zM783.36 79.81L760.32 119.72L806.40 119.72zM783.36 79.81L829.44 79.81L806.40 119.72zM829.44 79.81L806.40 119.72L852.48 119.72zM1198.08 79.81L1175.04 119.72L1221.12 119.72zM-69.12 119.72L-23.04 119.72L-46.08 159.63zM-23.04 119.72L23.04 119.72L0.00 159.63zM23.04 119.72L69.12 119.72L46.08 159.63zM115.20 119.72L161.28 119.72L138.24 159.63zM161.28 119.72L207.36 119.72L184.32 159.63zM207.36 119.72L184.32 159.63L230.40 159.63zM253.44 119.72L230.40 159.63L276.48 159.63zM345.60 119.72L391.68 119.72L368.64 159.63zM391.68 119.72L368.64 159.63L414.72 159.63zM622.08 119.72L599.04 159.63L645.12 159.63zM990.72 119.72L1036.80 119.72L1013.76 159.63zM-46.08 159.63L0.00 159.63L-23.04 199.53zM46.08 159.63L92.16 159.63L69.12 199.53zM138.24 159.63L184.32 159.63L161.28 199.53zM184.32 159.63L230.40 159.63L207.36 199.53zM276.48 159.63L322.56 159.63L299.52 199.53zM414.72 159.63L460.80 159.63L437.76 199.53zM552.96 159.63L599.04 159.63L576.00 199.53zM921.60 159.63L967.68 159.63L944.64 199.53zM967.68 159.63L944.64 199.53L990.72 199.53zM23.04 199.53L0.00 239.44L46.08 239.44zM23.04 199.53L69.12 199.53L46.08 239.44zM115.20 199.53L161.28 199.53L138.24 239.44zM161.28 199.53L138.24 239.44L184.32 239.44zM299.52 199.53L345.60 199.53L322.56 239.44zM345.60 199.53L322.56 239.44L368.64 239.44zM437.76 199.53L414.72 239.44L460.80 239.44zM483.84 199.53L460.80 239.44L506.88 239.44zM622.08 199.53L668.16 199.53L645.12 239.44zM668.16 199.53L714.24 199.53L691.20 239.44zM898.56 199.53L875.52 239.44L921.60 239.44zM1221.12 199.53L1198.08 239.44L1244.16 239.44zM1221.12 199.53L1267.20 199.53L1244.16 239.44zM1267.20 199.53L1244.16 239.44L1290.24 239.44zM-46.08 239.44L0.00 239.44L-23.04 279.35zM46.08 239.44L23.04 279.35L69.12 279.35zM276.48 239.44L253.44 279.35L299.52 279.35zM414.72 239.44L460.80 239.44L437.76 279.35zM645.12 239.44L691.20 239.44L668.16 279.35zM691.20 239.44L668.16 279.35L714.24 279.35zM783.36 239.44L829.44 239.44L806.40 279.35zM829.44 239.44L806.40 279.35L852.48 279.35zM-23.04 279.35L23.04 279.35L0.00 319.25zM69.12 279.35L115.20 279.35L92.16 319.25zM115.20 279.35L161.28 279.35L138.24 319.25zM253.44 279.35L230.40 319.25L276.48 319.25zM622.08 279.35L668.16 279.35L645.12 319.25zM668.16 279.35L714.24 279.35L691.20 319.25zM944.64 279.35L990.72 279.35L967.68 319.25zM990.72 279.35L967.68 319.25L1013.76 319.25zM1082.88 279.35L1128.96 279.35L1105.92 319.25zM1221.12 279.35L1267.20 279.35L1244.16 319.25zM-46.08 319.25L0.00 319.25L-23.04 359.16zM0.00 319.25L-23.04 359.16L23.04 359.16zM0.00 319.25L46.08 319.25L23.04 359.16zM46.08 319.25L23.04 359.16L69.12 359.16zM184.32 319.25L161.28 359.16L207.36 359.16zM184.32 319.25L230.40 319.25L207.36 359.16zM230.40 319.25L207.36 359.16L253.44 359.16zM276.48 319.25L322.56 319.25L299.52 359.16zM322.56 319.25L299.52 359.16L345.60 359.16zM368.64 319.25L414.72 319.25L391.68 359.16zM783.36 319.25L829.44 319.25L806.40 359.16zM829.44 319.25L806.40 359.16L852.48 359.16zM-69.12 359.16L-23.04 359.16L-46.08 399.06zM23.04 359.16L0.00 399.06L46.08 399.06zM69.12 359.16L115.20 359.16L92.16 399.06zM161.28 359.16L138.24 399.06L184.32 399.06zM207.36 359.16L253.44 359.16L230.40 399.06zM253.44 359.16L299.52 359.16L276.48 399.06zM299.52 359.16L276.48 399.06L322.56 399.06zM299.52 359.16L345.60 359.16L322.56 399.06zM483.84 359.16L529.92 359.16L506.88 399.06zM529.92 359.16L506.88 399.06L552.96 399.06zM576.00 359.16L622.08 359.16L599.04 399.06zM668.16 359.16L714.24 359.16L691.20 399.06zM714.24 359.16L691.20 399.06L737.28 399.06zM760.32 359.16L737.28 399.06L783.36 399.06zM-46.08 399.06L0.00 399.06L-23.04 438.97zM46.08 399.06L92.16 399.06L69.12 438.97zM92.16 399.06L69.12 438.97L115.20 438.97zM184.32 399.06L161.28 438.97L207.36 438.97zM230.40 399.06L276.48 399.06L253.44 438.97zM276.48 399.06L322.56 399.06L299.52 438.97zM322.56 399.06L368.64 399.06L345.60 438.97zM368.64 399.06L345.60 438.97L391.68 438.97zM414.72 399.06L391.68 438.97L437.76 438.97zM460.80 399.06L437.76 438.97L483.84 438.97zM506.88 399.06L552.96 399.06L529.92 438.97zM691.20 399.06L668.16 438.97L714.24 438.97zM737.28 399.06L714.24 438.97L760.32 438.97zM783.36 399.06L829.44 399.06L806.40 438.97zM875.52 399.06L921.60 399.06L898.56 438.97zM1013.76 399.06L1059.84 399.06L1036.80 438.97zM1059.84 399.06L1036.80 438.97L1082.88 438.97zM23.04 438.97L69.12 438.97L46.08 478.88zM69.12 438.97L46.08 478.88L92.16 478.88zM391.68 438.97L368.64 478.88L414.72 478.88zM483.84 438.97L460.80 478.88L506.88 478.88zM46.08 478.88L92.16 478.88L69.12 518.78zM92.16 478.88L69.12 518.78L115.20 518.78zM92.16 478.88L138.24 478.88L115.20 518.78zM184.32 478.88L161.28 518.78L207.36 518.78zM322.56 478.88L299.52 518.78L345.60 518.78zM414.72 478.88L460.80 478.88L437.76 518.78zM460.80 478.88L437.76 518.78L483.84 518.78zM552.96 478.88L529.92 518.78L576.00 518.78zM737.28 478.88L714.24 518.78L760.32 518.78zM1198.08 478.88L1175.04 518.78L1221.12 518.78zM1198.08 478.88L1244.16 478.88L1221.12 518.78zM-69.12 518.78L-23.04 518.78L-46.08 558.69zM-23.04 518.78L23.04 518.78L0.00 558.69zM23.04 518.78L0.00 558.69L46.08 558.69zM207.36 518.78L184.32 558.69L230.40 558.69zM345.60 518.78L322.56 558.69L368.64 558.69zM483.84 518.78L460.80 558.69L506.88 558.69zM529.92 518.78L506.88 558.69L552.96 558.69zM622.08 518.78L668.16 518.78L645.12 558.69zM668.16 518.78L645.12 558.69L691.20 558.69zM714.24 518.78L691.20 558.69L737.28 558.69zM944.64 518.78L921.60 558.69L967.68 558.69zM0.00 558.69L-23.04 598.60L23.04 598.60zM92.16 558.69L69.12 598.60L115.20 598.60zM92.16 558.69L138.24 558.69L115.20 598.60zM829.44 558.69L875.52 558.69L852.48 598.60zM921.60 558.69L898.56 598.60L944.64 598.60zM-69.12 598.60L-23.04 598.60L-46.08 638.50zM23.04 598.60L0.00 638.50L46.08 638.50zM115.20 598.60L92.16 638.50L138.24 638.50zM299.52 598.60L345.60 598.60L322.56 638.50zM0.00 638.50L-23.04 678.41L23.04 678.41zM46.08 638.50L23.04 678.41L69.12 678.41zM184.32 638.50L161.28 678.41L207.36 678.41zM230.40 638.50L207.36 678.41L253.44 678.41zM322.56 638.50L299.52 678.41L345.60 678.41zM506.88 638.50L552.96 638.50L529.92 678.41zM-23.04 678.41L23.04 678.41L0.00 718.32zM23.04 678.41L0.00 718.32L46.08 718.32zM69.12 678.41L115.20 678.41L92.16 718.32zM115.20 678.41L92.16 718.32L138.24 718.32zM115.20 678.41L161.28 678.41L138.24 718.32zM253.44 678.41L299.52 678.41L276.48 718.32zM345.60 678.41L391.68 678.41L368.64 718.32zM391.68 678.41L437.76 678.41L414.72 718.32zM622.08 678.41L668.16 678.41L645.12 718.32zM760.32 678.41L806.40 678.41L783.36 718.32zM46.08 718.32L92.16 718.32L69.12 758.22zM92.16 718.32L138.24 718.32L115.20 758.22zM138.24 718.32L115.20 758.22L161.28 758.22zM230.40 718.32L276.48 718.32L253.44 758.22zM276.48 718.32L253.44 758.22L299.52 758.22zM506.88 718.32L483.84 758.22L529.92 758.22z"
            data-idx="32">

        </path>
        <path fill="rgb(188, 220, 255)"
            d="M1082.88 119.72L1128.96 119.72L1105.92 159.63zM0.00 159.63L46.08 159.63L23.04 199.53zM1152.00 159.63L1198.08 159.63L1175.04 199.53zM622.08 199.53L599.04 239.44L645.12 239.44zM253.44 279.35L299.52 279.35L276.48 319.25zM529.92 279.35L576.00 279.35L552.96 319.25zM1082.88 279.35L1059.84 319.25L1105.92 319.25zM875.52 319.25L852.48 359.16L898.56 359.16zM622.08 359.16L599.04 399.06L645.12 399.06zM1105.92 399.06L1082.88 438.97L1128.96 438.97zM115.20 438.97L161.28 438.97L138.24 478.88zM691.20 478.88L737.28 478.88L714.24 518.78zM299.52 518.78L276.48 558.69L322.56 558.69zM944.64 518.78L990.72 518.78L967.68 558.69zM990.72 518.78L967.68 558.69L1013.76 558.69zM414.72 638.50L460.80 638.50L437.76 678.41zM46.08 718.32L23.04 758.22L69.12 758.22z"
            data-idx="34">

        </path>
        <path fill="rgb(183, 218, 255)"
            d="M1428.48 159.63L1405.44 199.53L1451.52 199.53zM1175.04 199.53L1221.12 199.53L1198.08 239.44zM299.52 279.35L276.48 319.25L322.56 319.25zM852.48 279.35L829.44 319.25L875.52 319.25zM691.20 319.25L737.28 319.25L714.24 359.16zM391.68 438.97L437.76 438.97L414.72 478.88zM829.44 478.88L875.52 478.88L852.48 518.78zM898.56 518.78L944.64 518.78L921.60 558.69z"
            data-idx="36">

        </path>
        <path fill="rgb(157, 202, 255)"
            d="M1013.76 0.00L990.72 39.91L1036.80 39.91zM1382.40 0.00L1428.48 0.00L1405.44 39.91zM1428.48 0.00L1405.44 39.91L1451.52 39.91zM1013.76 79.81L1059.84 79.81L1036.80 119.72zM1082.88 119.72L1059.84 159.63L1105.92 159.63zM1128.96 119.72L1105.92 159.63L1152.00 159.63zM1221.12 119.72L1267.20 119.72L1244.16 159.63zM1059.84 159.63L1105.92 159.63L1082.88 199.53zM1198.08 159.63L1175.04 199.53L1221.12 199.53zM668.16 199.53L645.12 239.44L691.20 239.44zM92.16 239.44L69.12 279.35L115.20 279.35zM576.00 279.35L622.08 279.35L599.04 319.25zM622.08 279.35L599.04 319.25L645.12 319.25zM1175.04 359.16L1221.12 359.16L1198.08 399.06zM1198.08 399.06L1244.16 399.06L1221.12 438.97zM1244.16 399.06L1221.12 438.97L1267.20 438.97zM529.92 438.97L576.00 438.97L552.96 478.88zM276.48 478.88L253.44 518.78L299.52 518.78zM875.52 478.88L921.60 478.88L898.56 518.78zM921.60 478.88L898.56 518.78L944.64 518.78zM576.00 518.78L622.08 518.78L599.04 558.69zM622.08 518.78L599.04 558.69L645.12 558.69zM691.20 558.69L737.28 558.69L714.24 598.60zM806.40 678.41L783.36 718.32L829.44 718.32z"
            data-idx="38">

        </path>
        <path fill="rgb(156, 201, 255)"
            d="M967.68 0.00L1013.76 0.00L990.72 39.91zM1082.88 39.91L1059.84 79.81L1105.92 79.81zM1382.40 79.81L1428.48 79.81L1405.44 119.72zM1036.80 119.72L1082.88 119.72L1059.84 159.63zM46.08 159.63L23.04 199.53L69.12 199.53zM645.12 159.63L691.20 159.63L668.16 199.53zM691.20 159.63L668.16 199.53L714.24 199.53zM1497.60 199.53L1474.56 239.44L1520.64 239.44zM46.08 239.44L92.16 239.44L69.12 279.35zM1152.00 239.44L1128.96 279.35L1175.04 279.35zM806.40 279.35L852.48 279.35L829.44 319.25zM737.28 319.25L714.24 359.16L760.32 359.16zM391.68 359.16L368.64 399.06L414.72 399.06zM506.88 478.88L552.96 478.88L529.92 518.78zM1059.84 478.88L1105.92 478.88L1082.88 518.78zM391.68 518.78L437.76 518.78L414.72 558.69zM576.00 518.78L552.96 558.69L599.04 558.69zM506.88 558.69L552.96 558.69L529.92 598.60zM161.28 678.41L207.36 678.41L184.32 718.32zM783.36 718.32L829.44 718.32L806.40 758.22z"
            data-idx="40">

        </path>
        <path fill="rgb(148, 197, 255)"
            d="M921.60 0.00L898.56 39.91L944.64 39.91zM1520.64 0.00L1566.72 0.00L1543.68 39.91zM599.04 79.81L645.12 79.81L622.08 119.72zM1290.24 79.81L1267.20 119.72L1313.28 119.72zM898.56 119.72L875.52 159.63L921.60 159.63zM1175.04 119.72L1221.12 119.72L1198.08 159.63zM1244.16 159.63L1221.12 199.53L1267.20 199.53zM207.36 199.53L253.44 199.53L230.40 239.44zM184.32 239.44L230.40 239.44L207.36 279.35zM1221.12 279.35L1198.08 319.25L1244.16 319.25zM1336.32 399.06L1313.28 438.97L1359.36 438.97zM-69.12 438.97L-23.04 438.97L-46.08 478.88zM1013.76 478.88L1059.84 478.88L1036.80 518.78zM1451.52 518.78L1497.60 518.78L1474.56 558.69zM460.80 558.69L437.76 598.60L483.84 598.60z"
            data-idx="42">

        </path>
        <path fill="rgb(124, 181, 255)"
            d="M1382.40 0.00L1359.36 39.91L1405.44 39.91zM1105.92 239.44L1082.88 279.35L1128.96 279.35zM391.68 359.16L437.76 359.16L414.72 399.06zM1405.44 359.16L1382.40 399.06L1428.48 399.06zM599.04 399.06L576.00 438.97L622.08 438.97zM1290.24 399.06L1336.32 399.06L1313.28 438.97zM1336.32 399.06L1382.40 399.06L1359.36 438.97zM506.88 478.88L483.84 518.78L529.92 518.78zM207.36 518.78L253.44 518.78L230.40 558.69zM138.24 558.69L184.32 558.69L161.28 598.60zM599.04 558.69L645.12 558.69L622.08 598.60zM529.92 598.60L576.00 598.60L552.96 638.50zM668.16 598.60L714.24 598.60L691.20 638.50zM460.80 638.50L506.88 638.50L483.84 678.41zM299.52 678.41L345.60 678.41L322.56 718.32zM138.24 718.32L184.32 718.32L161.28 758.22z"
            data-idx="44">

        </path>
        <path fill="rgb(109, 172, 255)"
            d="M1267.20 279.35L1313.28 279.35L1290.24 319.25zM668.16 359.16L645.12 399.06L691.20 399.06zM1359.36 359.16L1405.44 359.16L1382.40 399.06zM1451.52 438.97L1497.60 438.97L1474.56 478.88zM1451.52 518.78L1428.48 558.69L1474.56 558.69zM1013.76 558.69L990.72 598.60L1036.80 598.60zM852.48 598.60L829.44 638.50L875.52 638.50zM1036.80 598.60L1082.88 598.60L1059.84 638.50zM1082.88 598.60L1059.84 638.50L1105.92 638.50zM1221.12 598.60L1198.08 638.50L1244.16 638.50zM1497.60 598.60L1543.68 598.60L1520.64 638.50zM645.12 638.50L622.08 678.41L668.16 678.41zM1059.84 638.50L1105.92 638.50L1082.88 678.41zM253.44 678.41L230.40 718.32L276.48 718.32zM552.96 718.32L529.92 758.22L576.00 758.22zM829.44 718.32L806.40 758.22L852.48 758.22z"
            data-idx="46">

        </path>
        <path fill="rgb(96, 164, 255)"
            d="M1059.84 79.81L1105.92 79.81L1082.88 119.72zM1244.16 79.81L1290.24 79.81L1267.20 119.72zM1382.40 79.81L1359.36 119.72L1405.44 119.72zM1267.20 119.72L1244.16 159.63L1290.24 159.63zM506.88 159.63L483.84 199.53L529.92 199.53zM1059.84 159.63L1036.80 199.53L1082.88 199.53zM576.00 199.53L552.96 239.44L599.04 239.44zM1382.40 239.44L1359.36 279.35L1405.44 279.35zM967.68 319.25L944.64 359.16L990.72 359.16zM1105.92 319.25L1152.00 319.25L1128.96 359.16zM1451.52 359.16L1497.60 359.16L1474.56 399.06zM1382.40 399.06L1359.36 438.97L1405.44 438.97zM1221.12 438.97L1198.08 478.88L1244.16 478.88zM645.12 478.88L691.20 478.88L668.16 518.78zM852.48 518.78L898.56 518.78L875.52 558.69zM898.56 598.60L944.64 598.60L921.60 638.50zM1175.04 598.60L1221.12 598.60L1198.08 638.50zM1382.40 638.50L1428.48 638.50L1405.44 678.41zM921.60 718.32L898.56 758.22L944.64 758.22z"
            data-idx="48">

        </path>
        <path fill="rgb(88, 159, 255)"
            d="M829.44 239.44L875.52 239.44L852.48 279.35zM1198.08 239.44L1175.04 279.35L1221.12 279.35zM1128.96 359.16L1175.04 359.16L1152.00 399.06zM875.52 399.06L852.48 438.97L898.56 438.97zM1013.76 399.06L990.72 438.97L1036.80 438.97zM1290.24 399.06L1267.20 438.97L1313.28 438.97zM1175.04 438.97L1152.00 478.88L1198.08 478.88zM898.56 518.78L875.52 558.69L921.60 558.69zM1059.84 558.69L1105.92 558.69L1082.88 598.60zM1105.92 558.69L1152.00 558.69L1128.96 598.60zM1152.00 558.69L1128.96 598.60L1175.04 598.60zM1152.00 558.69L1198.08 558.69L1175.04 598.60zM483.84 598.60L460.80 638.50L506.88 638.50zM944.64 598.60L990.72 598.60L967.68 638.50zM1128.96 678.41L1105.92 718.32L1152.00 718.32zM645.12 718.32L622.08 758.22L668.16 758.22z"
            data-idx="50">

        </path>
        <path fill="rgb(97, 164, 255)"
            d="M806.40 39.91L852.48 39.91L829.44 79.81zM1175.04 39.91L1152.00 79.81L1198.08 79.81zM1451.52 39.91L1428.48 79.81L1474.56 79.81zM460.80 159.63L506.88 159.63L483.84 199.53zM1566.72 159.63L1543.68 199.53L1589.76 199.53zM852.48 279.35L898.56 279.35L875.52 319.25zM1128.96 279.35L1175.04 279.35L1152.00 319.25zM1175.04 279.35L1152.00 319.25L1198.08 319.25zM1336.32 319.25L1313.28 359.16L1359.36 359.16zM760.32 359.16L806.40 359.16L783.36 399.06zM944.64 359.16L921.60 399.06L967.68 399.06zM1082.88 359.16L1059.84 399.06L1105.92 399.06zM1082.88 438.97L1128.96 438.97L1105.92 478.88zM299.52 598.60L276.48 638.50L322.56 638.50zM714.24 598.60L760.32 598.60L737.28 638.50zM1152.00 638.50L1198.08 638.50L1175.04 678.41zM483.84 678.41L460.80 718.32L506.88 718.32zM898.56 678.41L944.64 678.41L921.60 718.32zM875.52 718.32L852.48 758.22L898.56 758.22z"
            data-idx="52">

        </path>
        <path fill="rgb(78, 153, 255)"
            d="M1474.56 0.00L1520.64 0.00L1497.60 39.91zM1152.00 79.81L1128.96 119.72L1175.04 119.72zM1290.24 159.63L1267.20 199.53L1313.28 199.53zM921.60 319.25L898.56 359.16L944.64 359.16zM1405.44 438.97L1382.40 478.88L1428.48 478.88zM1451.52 438.97L1428.48 478.88L1474.56 478.88zM1497.60 438.97L1543.68 438.97L1520.64 478.88zM1359.36 518.78L1405.44 518.78L1382.40 558.69zM1336.32 558.69L1313.28 598.60L1359.36 598.60zM714.24 598.60L691.20 638.50L737.28 638.50zM230.40 638.50L276.48 638.50L253.44 678.41zM990.72 678.41L967.68 718.32L1013.76 718.32zM-46.08 718.32L0.00 718.32L-23.04 758.22z"
            data-idx="54">

        </path>
        <path fill="rgb(56, 141, 255)"
            d="M852.48 39.91L829.44 79.81L875.52 79.81zM829.44 79.81L875.52 79.81L852.48 119.72zM1013.76 79.81L990.72 119.72L1036.80 119.72zM1313.28 119.72L1359.36 119.72L1336.32 159.63zM898.56 279.35L875.52 319.25L921.60 319.25zM1313.28 438.97L1359.36 438.97L1336.32 478.88zM1543.68 438.97L1520.64 478.88L1566.72 478.88zM230.40 478.88L207.36 518.78L253.44 518.78zM1382.40 478.88L1428.48 478.88L1405.44 518.78zM1198.08 558.69L1175.04 598.60L1221.12 598.60zM1520.64 558.69L1566.72 558.69L1543.68 598.60zM1198.08 638.50L1244.16 638.50L1221.12 678.41zM714.24 678.41L760.32 678.41L737.28 718.32zM1128.96 678.41L1175.04 678.41L1152.00 718.32z"
            data-idx="56">

        </path>
        <path fill="rgb(18, 127, 255)"
            d="M1105.92 0.00L1152.00 0.00L1128.96 39.91zM1152.00 0.00L1128.96 39.91L1175.04 39.91zM760.32 119.72L806.40 119.72L783.36 159.63zM1059.84 239.44L1036.80 279.35L1082.88 279.35zM875.52 638.50L852.48 678.41L898.56 678.41zM944.64 678.41L921.60 718.32L967.68 718.32zM1013.76 718.32L1059.84 718.32L1036.80 758.22zM1428.48 718.32L1405.44 758.22L1451.52 758.22z"
            data-idx="58">

        </path>
        <path fill="rgb(10, 125, 255)"
            d="M1244.16 0.00L1290.24 0.00L1267.20 39.91zM1267.20 39.91L1244.16 79.81L1290.24 79.81zM1313.28 39.91L1359.36 39.91L1336.32 79.81zM1359.36 39.91L1405.44 39.91L1382.40 79.81zM1405.44 39.91L1382.40 79.81L1428.48 79.81zM760.32 119.72L737.28 159.63L783.36 159.63zM1405.44 119.72L1382.40 159.63L1428.48 159.63zM1451.52 119.72L1497.60 119.72L1474.56 159.63zM1497.60 119.72L1474.56 159.63L1520.64 159.63zM1382.40 159.63L1359.36 199.53L1405.44 199.53zM1474.56 159.63L1451.52 199.53L1497.60 199.53zM990.72 199.53L1036.80 199.53L1013.76 239.44zM1036.80 199.53L1082.88 199.53L1059.84 239.44zM1128.96 199.53L1175.04 199.53L1152.00 239.44zM1290.24 239.44L1267.20 279.35L1313.28 279.35zM1428.48 239.44L1474.56 239.44L1451.52 279.35zM1474.56 239.44L1451.52 279.35L1497.60 279.35zM1474.56 239.44L1520.64 239.44L1497.60 279.35zM1497.60 279.35L1474.56 319.25L1520.64 319.25zM1543.68 279.35L1520.64 319.25L1566.72 319.25zM737.28 319.25L783.36 319.25L760.32 359.16zM1059.84 319.25L1105.92 319.25L1082.88 359.16zM1428.48 319.25L1405.44 359.16L1451.52 359.16zM1474.56 319.25L1520.64 319.25L1497.60 359.16zM1313.28 359.16L1290.24 399.06L1336.32 399.06zM1105.92 399.06L1152.00 399.06L1128.96 438.97zM1152.00 399.06L1128.96 438.97L1175.04 438.97zM1428.48 399.06L1474.56 399.06L1451.52 438.97zM1566.72 399.06L1543.68 438.97L1589.76 438.97zM599.04 478.88L645.12 478.88L622.08 518.78zM645.12 478.88L622.08 518.78L668.16 518.78zM1013.76 478.88L990.72 518.78L1036.80 518.78zM1105.92 478.88L1152.00 478.88L1128.96 518.78zM1152.00 478.88L1128.96 518.78L1175.04 518.78zM1244.16 478.88L1290.24 478.88L1267.20 518.78zM1290.24 478.88L1267.20 518.78L1313.28 518.78zM1336.32 478.88L1313.28 518.78L1359.36 518.78zM1382.40 478.88L1359.36 518.78L1405.44 518.78zM1428.48 478.88L1474.56 478.88L1451.52 518.78zM1474.56 478.88L1520.64 478.88L1497.60 518.78zM990.72 518.78L1036.80 518.78L1013.76 558.69zM1036.80 518.78L1013.76 558.69L1059.84 558.69zM1082.88 518.78L1059.84 558.69L1105.92 558.69zM1221.12 518.78L1267.20 518.78L1244.16 558.69zM1313.28 518.78L1359.36 518.78L1336.32 558.69zM1543.68 518.78L1520.64 558.69L1566.72 558.69zM1013.76 558.69L1059.84 558.69L1036.80 598.60zM1059.84 558.69L1036.80 598.60L1082.88 598.60zM1336.32 558.69L1382.40 558.69L1359.36 598.60zM1382.40 558.69L1359.36 598.60L1405.44 598.60zM852.48 598.60L898.56 598.60L875.52 638.50zM1267.20 598.60L1244.16 638.50L1290.24 638.50zM1267.20 598.60L1313.28 598.60L1290.24 638.50zM1359.36 598.60L1336.32 638.50L1382.40 638.50zM1451.52 598.60L1428.48 638.50L1474.56 638.50zM1013.76 638.50L1059.84 638.50L1036.80 678.41zM1059.84 638.50L1036.80 678.41L1082.88 678.41zM1105.92 638.50L1152.00 638.50L1128.96 678.41zM1290.24 638.50L1267.20 678.41L1313.28 678.41zM1382.40 638.50L1359.36 678.41L1405.44 678.41zM1175.04 678.41L1221.12 678.41L1198.08 718.32zM1221.12 678.41L1267.20 678.41L1244.16 718.32zM1313.28 678.41L1290.24 718.32L1336.32 718.32zM1313.28 678.41L1359.36 678.41L1336.32 718.32zM1405.44 678.41L1451.52 678.41L1428.48 718.32zM1497.60 678.41L1543.68 678.41L1520.64 718.32zM322.56 718.32L368.64 718.32L345.60 758.22zM921.60 718.32L967.68 718.32L944.64 758.22zM967.68 718.32L1013.76 718.32L990.72 758.22zM1013.76 718.32L990.72 758.22L1036.80 758.22zM1059.84 718.32L1105.92 718.32L1082.88 758.22zM1520.64 718.32L1566.72 718.32L1543.68 758.22z"
            data-idx="60">

        </path>
        <path fill="rgb(204, 229, 255)"
            d="M-46.08 0.00L0.00 0.00L-23.04 39.91zM46.08 0.00L23.04 39.91L69.12 39.91zM46.08 0.00L92.16 0.00L69.12 39.91zM92.16 0.00L69.12 39.91L115.20 39.91zM138.24 0.00L115.20 39.91L161.28 39.91zM184.32 0.00L161.28 39.91L207.36 39.91zM184.32 0.00L230.40 0.00L207.36 39.91zM230.40 0.00L207.36 39.91L253.44 39.91zM322.56 0.00L368.64 0.00L345.60 39.91zM368.64 0.00L345.60 39.91L391.68 39.91zM460.80 0.00L437.76 39.91L483.84 39.91zM460.80 0.00L506.88 0.00L483.84 39.91zM552.96 0.00L529.92 39.91L576.00 39.91zM552.96 0.00L599.04 0.00L576.00 39.91zM645.12 0.00L622.08 39.91L668.16 39.91zM691.20 0.00L737.28 0.00L714.24 39.91zM737.28 0.00L783.36 0.00L760.32 39.91zM829.44 0.00L806.40 39.91L852.48 39.91zM1059.84 0.00L1105.92 0.00L1082.88 39.91zM1198.08 0.00L1244.16 0.00L1221.12 39.91zM1336.32 0.00L1313.28 39.91L1359.36 39.91zM69.12 39.91L46.08 79.81L92.16 79.81zM115.20 39.91L161.28 39.91L138.24 79.81zM253.44 39.91L230.40 79.81L276.48 79.81zM299.52 39.91L345.60 39.91L322.56 79.81zM345.60 39.91L322.56 79.81L368.64 79.81zM345.60 39.91L391.68 39.91L368.64 79.81zM391.68 39.91L437.76 39.91L414.72 79.81zM483.84 39.91L529.92 39.91L506.88 79.81zM622.08 39.91L599.04 79.81L645.12 79.81zM668.16 39.91L645.12 79.81L691.20 79.81zM668.16 39.91L714.24 39.91L691.20 79.81zM714.24 39.91L691.20 79.81L737.28 79.81zM714.24 39.91L760.32 39.91L737.28 79.81zM760.32 39.91L737.28 79.81L783.36 79.81zM944.64 39.91L921.60 79.81L967.68 79.81zM944.64 39.91L990.72 39.91L967.68 79.81zM990.72 39.91L1036.80 39.91L1013.76 79.81zM1175.04 39.91L1221.12 39.91L1198.08 79.81zM1221.12 39.91L1198.08 79.81L1244.16 79.81zM1313.28 39.91L1290.24 79.81L1336.32 79.81zM1497.60 39.91L1543.68 39.91L1520.64 79.81zM-46.08 79.81L0.00 79.81L-23.04 119.72zM0.00 79.81L-23.04 119.72L23.04 119.72zM138.24 79.81L184.32 79.81L161.28 119.72zM230.40 79.81L276.48 79.81L253.44 119.72zM276.48 79.81L253.44 119.72L299.52 119.72zM276.48 79.81L322.56 79.81L299.52 119.72zM322.56 79.81L368.64 79.81L345.60 119.72zM506.88 79.81L552.96 79.81L529.92 119.72zM737.28 79.81L783.36 79.81L760.32 119.72zM1520.64 79.81L1497.60 119.72L1543.68 119.72zM69.12 119.72L46.08 159.63L92.16 159.63zM299.52 119.72L345.60 119.72L322.56 159.63zM345.60 119.72L322.56 159.63L368.64 159.63zM483.84 119.72L529.92 119.72L506.88 159.63zM529.92 119.72L506.88 159.63L552.96 159.63zM529.92 119.72L576.00 119.72L552.96 159.63zM576.00 119.72L552.96 159.63L599.04 159.63zM668.16 119.72L714.24 119.72L691.20 159.63zM1036.80 119.72L1013.76 159.63L1059.84 159.63zM1405.44 119.72L1451.52 119.72L1428.48 159.63zM1543.68 119.72L1520.64 159.63L1566.72 159.63zM0.00 159.63L-23.04 199.53L23.04 199.53zM92.16 159.63L69.12 199.53L115.20 199.53zM138.24 159.63L115.20 199.53L161.28 199.53zM230.40 159.63L276.48 159.63L253.44 199.53zM276.48 159.63L253.44 199.53L299.52 199.53zM322.56 159.63L299.52 199.53L345.60 199.53zM414.72 159.63L391.68 199.53L437.76 199.53zM460.80 159.63L437.76 199.53L483.84 199.53zM506.88 159.63L552.96 159.63L529.92 199.53zM599.04 159.63L645.12 159.63L622.08 199.53zM691.20 159.63L737.28 159.63L714.24 199.53zM737.28 159.63L783.36 159.63L760.32 199.53zM783.36 159.63L829.44 159.63L806.40 199.53zM829.44 159.63L875.52 159.63L852.48 199.53zM875.52 159.63L852.48 199.53L898.56 199.53zM921.60 159.63L898.56 199.53L944.64 199.53zM1013.76 159.63L990.72 199.53L1036.80 199.53zM161.28 199.53L207.36 199.53L184.32 239.44zM207.36 199.53L184.32 239.44L230.40 239.44zM391.68 199.53L437.76 199.53L414.72 239.44zM437.76 199.53L483.84 199.53L460.80 239.44zM576.00 199.53L622.08 199.53L599.04 239.44zM714.24 199.53L691.20 239.44L737.28 239.44zM806.40 199.53L852.48 199.53L829.44 239.44zM852.48 199.53L898.56 199.53L875.52 239.44zM1405.44 199.53L1451.52 199.53L1428.48 239.44zM0.00 239.44L-23.04 279.35L23.04 279.35zM0.00 239.44L46.08 239.44L23.04 279.35zM184.32 239.44L161.28 279.35L207.36 279.35zM230.40 239.44L276.48 239.44L253.44 279.35zM322.56 239.44L299.52 279.35L345.60 279.35zM322.56 239.44L368.64 239.44L345.60 279.35zM368.64 239.44L345.60 279.35L391.68 279.35zM460.80 239.44L437.76 279.35L483.84 279.35zM460.80 239.44L506.88 239.44L483.84 279.35zM599.04 239.44L576.00 279.35L622.08 279.35zM737.28 239.44L783.36 239.44L760.32 279.35zM783.36 239.44L760.32 279.35L806.40 279.35zM921.60 239.44L967.68 239.44L944.64 279.35zM967.68 239.44L1013.76 239.44L990.72 279.35zM-69.12 279.35L-23.04 279.35L-46.08 319.25zM23.04 279.35L69.12 279.35L46.08 319.25zM69.12 279.35L46.08 319.25L92.16 319.25zM161.28 279.35L138.24 319.25L184.32 319.25zM161.28 279.35L207.36 279.35L184.32 319.25zM207.36 279.35L184.32 319.25L230.40 319.25zM299.52 279.35L345.60 279.35L322.56 319.25zM345.60 279.35L391.68 279.35L368.64 319.25zM483.84 279.35L460.80 319.25L506.88 319.25zM529.92 279.35L506.88 319.25L552.96 319.25zM668.16 279.35L645.12 319.25L691.20 319.25zM714.24 279.35L691.20 319.25L737.28 319.25zM990.72 279.35L1036.80 279.35L1013.76 319.25zM1128.96 279.35L1105.92 319.25L1152.00 319.25zM46.08 319.25L92.16 319.25L69.12 359.16zM230.40 319.25L276.48 319.25L253.44 359.16zM276.48 319.25L253.44 359.16L299.52 359.16zM322.56 319.25L368.64 319.25L345.60 359.16zM414.72 319.25L460.80 319.25L437.76 359.16zM460.80 319.25L437.76 359.16L483.84 359.16zM506.88 319.25L552.96 319.25L529.92 359.16zM1152.00 319.25L1198.08 319.25L1175.04 359.16zM1198.08 319.25L1244.16 319.25L1221.12 359.16zM-23.04 359.16L23.04 359.16L0.00 399.06zM69.12 359.16L46.08 399.06L92.16 399.06zM161.28 359.16L207.36 359.16L184.32 399.06zM207.36 359.16L184.32 399.06L230.40 399.06zM46.08 399.06L23.04 438.97L69.12 438.97zM138.24 399.06L184.32 399.06L161.28 438.97zM230.40 399.06L207.36 438.97L253.44 438.97zM276.48 399.06L253.44 438.97L299.52 438.97zM552.96 399.06L529.92 438.97L576.00 438.97zM645.12 399.06L622.08 438.97L668.16 438.97zM737.28 399.06L783.36 399.06L760.32 438.97zM921.60 399.06L898.56 438.97L944.64 438.97zM69.12 438.97L115.20 438.97L92.16 478.88zM253.44 438.97L299.52 438.97L276.48 478.88zM437.76 438.97L483.84 438.97L460.80 478.88zM529.92 438.97L506.88 478.88L552.96 478.88zM138.24 478.88L115.20 518.78L161.28 518.78zM276.48 478.88L322.56 478.88L299.52 518.78zM368.64 478.88L345.60 518.78L391.68 518.78zM599.04 478.88L576.00 518.78L622.08 518.78zM1244.16 478.88L1221.12 518.78L1267.20 518.78zM69.12 518.78L115.20 518.78L92.16 558.69zM115.20 518.78L92.16 558.69L138.24 558.69zM115.20 518.78L161.28 518.78L138.24 558.69zM161.28 518.78L207.36 518.78L184.32 558.69zM437.76 518.78L483.84 518.78L460.80 558.69zM714.24 518.78L760.32 518.78L737.28 558.69zM760.32 518.78L806.40 518.78L783.36 558.69zM0.00 558.69L46.08 558.69L23.04 598.60zM276.48 558.69L253.44 598.60L299.52 598.60zM276.48 558.69L322.56 558.69L299.52 598.60zM322.56 558.69L299.52 598.60L345.60 598.60zM460.80 558.69L506.88 558.69L483.84 598.60zM783.36 558.69L829.44 558.69L806.40 598.60zM829.44 558.69L806.40 598.60L852.48 598.60zM875.52 558.69L921.60 558.69L898.56 598.60zM1244.16 558.69L1290.24 558.69L1267.20 598.60zM-23.04 598.60L-46.08 638.50L0.00 638.50zM-23.04 598.60L23.04 598.60L0.00 638.50zM69.12 598.60L115.20 598.60L92.16 638.50zM161.28 598.60L138.24 638.50L184.32 638.50zM345.60 598.60L322.56 638.50L368.64 638.50zM345.60 598.60L391.68 598.60L368.64 638.50zM1082.88 598.60L1128.96 598.60L1105.92 638.50zM-46.08 638.50L0.00 638.50L-23.04 678.41zM92.16 638.50L69.12 678.41L115.20 678.41zM92.16 638.50L138.24 638.50L115.20 678.41zM276.48 638.50L322.56 638.50L299.52 678.41zM691.20 638.50L668.16 678.41L714.24 678.41zM691.20 638.50L737.28 638.50L714.24 678.41zM1566.72 638.50L1543.68 678.41L1589.76 678.41zM-23.04 678.41L-46.08 718.32L0.00 718.32zM69.12 678.41L46.08 718.32L92.16 718.32zM161.28 678.41L138.24 718.32L184.32 718.32zM437.76 678.41L414.72 718.32L460.80 718.32zM576.00 678.41L622.08 678.41L599.04 718.32zM668.16 678.41L645.12 718.32L691.20 718.32zM184.32 718.32L230.40 718.32L207.36 758.22zM276.48 718.32L322.56 718.32L299.52 758.22zM322.56 718.32L299.52 758.22L345.60 758.22z"
            data-idx="62">

        </path>
        <path fill="rgb(204, 229, 255)"
            d="M691.20 0.00L668.16 39.91L714.24 39.91zM1474.56 79.81L1520.64 79.81L1497.60 119.72zM299.52 199.53L276.48 239.44L322.56 239.44zM1497.60 199.53L1543.68 199.53L1520.64 239.44zM230.40 239.44L207.36 279.35L253.44 279.35zM1013.76 239.44L990.72 279.35L1036.80 279.35zM1244.16 319.25L1221.12 359.16L1267.20 359.16zM714.24 359.16L760.32 359.16L737.28 399.06zM92.16 399.06L138.24 399.06L115.20 438.97zM806.40 518.78L783.36 558.69L829.44 558.69zM921.60 638.50L898.56 678.41L944.64 678.41zM1520.64 638.50L1566.72 638.50L1543.68 678.41zM207.36 678.41L184.32 718.32L230.40 718.32zM990.72 678.41L1036.80 678.41L1013.76 718.32z"
            data-idx="64">

        </path>
        <path fill="rgb(187, 220, 255)"
            d="M645.12 79.81L691.20 79.81L668.16 119.72zM875.52 79.81L921.60 79.81L898.56 119.72zM1382.40 159.63L1428.48 159.63L1405.44 199.53zM1267.20 199.53L1313.28 199.53L1290.24 239.44zM967.68 239.44L944.64 279.35L990.72 279.35zM668.16 438.97L714.24 438.97L691.20 478.88zM0.00 478.88L46.08 478.88L23.04 518.78zM529.92 518.78L576.00 518.78L552.96 558.69zM391.68 598.60L368.64 638.50L414.72 638.50zM622.08 598.60L668.16 598.60L645.12 638.50zM460.80 638.50L437.76 678.41L483.84 678.41z"
            data-idx="66">

        </path>
        <path fill="rgb(165, 206, 255)"
            d="M645.12 0.00L691.20 0.00L668.16 39.91zM852.48 39.91L898.56 39.91L875.52 79.81zM1428.48 79.81L1405.44 119.72L1451.52 119.72zM806.40 199.53L783.36 239.44L829.44 239.44zM1036.80 279.35L1082.88 279.35L1059.84 319.25zM138.24 319.25L115.20 359.16L161.28 359.16zM460.80 319.25L506.88 319.25L483.84 359.16zM1290.24 319.25L1267.20 359.16L1313.28 359.16zM437.76 359.16L414.72 399.06L460.80 399.06zM852.48 359.16L829.44 399.06L875.52 399.06zM1221.12 359.16L1267.20 359.16L1244.16 399.06zM1082.88 438.97L1059.84 478.88L1105.92 478.88zM46.08 478.88L23.04 518.78L69.12 518.78zM875.52 478.88L852.48 518.78L898.56 518.78zM253.44 518.78L299.52 518.78L276.48 558.69zM437.76 518.78L414.72 558.69L460.80 558.69zM253.44 598.60L230.40 638.50L276.48 638.50zM552.96 718.32L599.04 718.32L576.00 758.22z"
            data-idx="68">

        </path>
        <path fill="rgb(153, 200, 255)"
            d="M921.60 79.81L898.56 119.72L944.64 119.72zM1336.32 79.81L1313.28 119.72L1359.36 119.72zM253.44 199.53L299.52 199.53L276.48 239.44zM368.64 239.44L414.72 239.44L391.68 279.35zM506.88 239.44L552.96 239.44L529.92 279.35zM1105.92 239.44L1152.00 239.44L1128.96 279.35zM92.16 319.25L138.24 319.25L115.20 359.16zM506.88 319.25L483.84 359.16L529.92 359.16zM599.04 319.25L576.00 359.16L622.08 359.16zM1221.12 359.16L1198.08 399.06L1244.16 399.06zM1497.60 359.16L1474.56 399.06L1520.64 399.06zM691.20 399.06L737.28 399.06L714.24 438.97zM1267.20 438.97L1313.28 438.97L1290.24 478.88zM-46.08 478.88L0.00 478.88L-23.04 518.78zM138.24 478.88L184.32 478.88L161.28 518.78zM645.12 558.69L622.08 598.60L668.16 598.60zM737.28 558.69L783.36 558.69L760.32 598.60zM921.60 558.69L967.68 558.69L944.64 598.60zM483.84 598.60L529.92 598.60L506.88 638.50zM368.64 638.50L414.72 638.50L391.68 678.41zM529.92 678.41L576.00 678.41L552.96 718.32zM668.16 678.41L714.24 678.41L691.20 718.32zM599.04 718.32L576.00 758.22L622.08 758.22z"
            data-idx="70">

        </path>
        <path fill="rgb(141, 192, 255)"
            d="M898.56 39.91L875.52 79.81L921.60 79.81zM1474.56 79.81L1451.52 119.72L1497.60 119.72zM115.20 119.72L92.16 159.63L138.24 159.63zM852.48 119.72L829.44 159.63L875.52 159.63zM1105.92 159.63L1082.88 199.53L1128.96 199.53zM1198.08 159.63L1244.16 159.63L1221.12 199.53zM253.44 199.53L230.40 239.44L276.48 239.44zM1313.28 199.53L1290.24 239.44L1336.32 239.44zM552.96 239.44L529.92 279.35L576.00 279.35zM921.60 239.44L898.56 279.35L944.64 279.35zM1313.28 279.35L1359.36 279.35L1336.32 319.25zM990.72 359.16L1036.80 359.16L1013.76 399.06zM1267.20 359.16L1244.16 399.06L1290.24 399.06zM783.36 478.88L829.44 478.88L806.40 518.78zM1105.92 478.88L1082.88 518.78L1128.96 518.78zM23.04 518.78L69.12 518.78L46.08 558.69zM184.32 558.69L230.40 558.69L207.36 598.60zM414.72 558.69L460.80 558.69L437.76 598.60zM552.96 558.69L599.04 558.69L576.00 598.60zM737.28 558.69L714.24 598.60L760.32 598.60zM783.36 558.69L760.32 598.60L806.40 598.60zM207.36 598.60L253.44 598.60L230.40 638.50zM714.24 678.41L691.20 718.32L737.28 718.32z"
            data-idx="72">

        </path>
        <path fill="rgb(143, 194, 255)"
            d="M691.20 79.81L737.28 79.81L714.24 119.72zM737.28 79.81L714.24 119.72L760.32 119.72zM898.56 279.35L944.64 279.35L921.60 319.25zM806.40 359.16L852.48 359.16L829.44 399.06zM-23.04 438.97L-46.08 478.88L0.00 478.88zM1221.12 438.97L1267.20 438.97L1244.16 478.88zM1059.84 478.88L1036.80 518.78L1082.88 518.78zM1497.60 518.78L1474.56 558.69L1520.64 558.69zM529.92 598.60L506.88 638.50L552.96 638.50zM875.52 638.50L921.60 638.50L898.56 678.41zM345.60 678.41L322.56 718.32L368.64 718.32zM898.56 678.41L875.52 718.32L921.60 718.32z"
            data-idx="74">

        </path>
        <path fill="rgb(106, 171, 255)"
            d="M1198.08 79.81L1244.16 79.81L1221.12 119.72zM1244.16 79.81L1221.12 119.72L1267.20 119.72zM437.76 119.72L414.72 159.63L460.80 159.63zM1520.64 319.25L1566.72 319.25L1543.68 359.16zM552.96 399.06L599.04 399.06L576.00 438.97zM69.12 518.78L46.08 558.69L92.16 558.69zM1566.72 558.69L1543.68 598.60L1589.76 598.60zM161.28 598.60L207.36 598.60L184.32 638.50zM368.64 718.32L414.72 718.32L391.68 758.22zM875.52 718.32L921.60 718.32L898.56 758.22z"
            data-idx="76">

        </path>
        <path fill="rgb(102, 167, 255)"
            d="M1336.32 0.00L1382.40 0.00L1359.36 39.91zM645.12 79.81L622.08 119.72L668.16 119.72zM391.68 119.72L437.76 119.72L414.72 159.63zM1128.96 119.72L1175.04 119.72L1152.00 159.63zM1359.36 119.72L1405.44 119.72L1382.40 159.63zM1451.52 199.53L1497.60 199.53L1474.56 239.44zM875.52 239.44L921.60 239.44L898.56 279.35zM622.08 359.16L668.16 359.16L645.12 399.06zM1036.80 359.16L1013.76 399.06L1059.84 399.06zM207.36 438.97L253.44 438.97L230.40 478.88zM345.60 518.78L391.68 518.78L368.64 558.69zM1290.24 558.69L1336.32 558.69L1313.28 598.60zM760.32 598.60L737.28 638.50L783.36 638.50zM1543.68 598.60L1520.64 638.50L1566.72 638.50zM322.56 638.50L368.64 638.50L345.60 678.41z"
            data-idx="78">

        </path>
        <path fill="rgb(87, 158, 255)"
            d="M944.64 119.72L990.72 119.72L967.68 159.63zM1244.16 159.63L1290.24 159.63L1267.20 199.53zM1290.24 159.63L1336.32 159.63L1313.28 199.53zM944.64 199.53L921.60 239.44L967.68 239.44zM1175.04 279.35L1221.12 279.35L1198.08 319.25zM1451.52 279.35L1428.48 319.25L1474.56 319.25zM529.92 359.16L576.00 359.16L552.96 399.06zM898.56 359.16L875.52 399.06L921.60 399.06zM1175.04 359.16L1152.00 399.06L1198.08 399.06zM1520.64 399.06L1497.60 438.97L1543.68 438.97zM414.72 478.88L391.68 518.78L437.76 518.78zM1105.92 558.69L1082.88 598.60L1128.96 598.60zM622.08 598.60L599.04 638.50L645.12 638.50zM990.72 598.60L967.68 638.50L1013.76 638.50zM944.64 678.41L990.72 678.41L967.68 718.32z"
            data-idx="80">

        </path>
        <path fill="rgb(93, 163, 255)"
            d="M875.52 0.00L921.60 0.00L898.56 39.91zM1013.76 239.44L1059.84 239.44L1036.80 279.35zM437.76 359.16L483.84 359.16L460.80 399.06zM460.80 399.06L506.88 399.06L483.84 438.97zM1359.36 438.97L1336.32 478.88L1382.40 478.88zM368.64 478.88L414.72 478.88L391.68 518.78zM576.00 598.60L622.08 598.60L599.04 638.50zM368.64 638.50L345.60 678.41L391.68 678.41zM1013.76 638.50L990.72 678.41L1036.80 678.41zM829.44 718.32L875.52 718.32L852.48 758.22zM1428.48 718.32L1474.56 718.32L1451.52 758.22zM1474.56 718.32L1451.52 758.22L1497.60 758.22z"
            data-idx="82">

        </path>
        <path fill="rgb(54, 139, 255)"
            d="M1520.64 0.00L1497.60 39.91L1543.68 39.91zM806.40 119.72L783.36 159.63L829.44 159.63zM1405.44 279.35L1451.52 279.35L1428.48 319.25zM806.40 359.16L783.36 399.06L829.44 399.06zM852.48 359.16L898.56 359.16L875.52 399.06zM184.32 478.88L230.40 478.88L207.36 518.78zM1428.48 478.88L1405.44 518.78L1451.52 518.78zM391.68 518.78L368.64 558.69L414.72 558.69zM1221.12 518.78L1198.08 558.69L1244.16 558.69zM1128.96 598.60L1175.04 598.60L1152.00 638.50zM967.68 638.50L1013.76 638.50L990.72 678.41zM1405.44 678.41L1382.40 718.32L1428.48 718.32zM1105.92 718.32L1152.00 718.32L1128.96 758.22zM1520.64 718.32L1497.60 758.22L1543.68 758.22z"
            data-idx="84">

        </path>
        <path fill="rgb(54, 139, 255)"
            d="M1128.96 39.91L1175.04 39.91L1152.00 79.81zM1497.60 39.91L1474.56 79.81L1520.64 79.81zM1566.72 79.81L1543.68 119.72L1589.76 119.72zM668.16 119.72L645.12 159.63L691.20 159.63zM1428.48 159.63L1474.56 159.63L1451.52 199.53zM691.20 239.44L737.28 239.44L714.24 279.35zM875.52 239.44L852.48 279.35L898.56 279.35zM1543.68 359.16L1520.64 399.06L1566.72 399.06zM1244.16 399.06L1290.24 399.06L1267.20 438.97zM1128.96 438.97L1175.04 438.97L1152.00 478.88zM368.64 558.69L414.72 558.69L391.68 598.60zM1520.64 558.69L1497.60 598.60L1543.68 598.60zM253.44 598.60L299.52 598.60L276.48 638.50zM1405.44 598.60L1451.52 598.60L1428.48 638.50zM1082.88 678.41L1128.96 678.41L1105.92 718.32zM691.20 718.32L668.16 758.22L714.24 758.22z"
            data-idx="86">

        </path>
        <path fill="rgb(0, 123, 255)"
            d="M875.52 319.25L921.60 319.25L898.56 359.16zM1267.20 359.16L1313.28 359.16L1290.24 399.06zM967.68 399.06L944.64 438.97L990.72 438.97zM967.68 478.88L944.64 518.78L990.72 518.78zM1520.64 478.88L1497.60 518.78L1543.68 518.78zM1175.04 518.78L1221.12 518.78L1198.08 558.69zM1198.08 558.69L1244.16 558.69L1221.12 598.60zM852.48 678.41L829.44 718.32L875.52 718.32zM414.72 718.32L460.80 718.32L437.76 758.22zM1059.84 718.32L1036.80 758.22L1082.88 758.22zM1382.40 718.32L1359.36 758.22L1405.44 758.22z"
            data-idx="88">

        </path>
        <path fill="rgb(27, 129, 255)"
            d="M1152.00 0.00L1198.08 0.00L1175.04 39.91zM1474.56 0.00L1451.52 39.91L1497.60 39.91zM1221.12 39.91L1267.20 39.91L1244.16 79.81zM1359.36 39.91L1336.32 79.81L1382.40 79.81zM1336.32 159.63L1382.40 159.63L1359.36 199.53zM1128.96 199.53L1105.92 239.44L1152.00 239.44zM1313.28 199.53L1359.36 199.53L1336.32 239.44zM1359.36 199.53L1336.32 239.44L1382.40 239.44zM1405.44 199.53L1382.40 239.44L1428.48 239.44zM1198.08 239.44L1244.16 239.44L1221.12 279.35zM1382.40 239.44L1428.48 239.44L1405.44 279.35zM1520.64 239.44L1566.72 239.44L1543.68 279.35zM1405.44 279.35L1382.40 319.25L1428.48 319.25zM1451.52 279.35L1497.60 279.35L1474.56 319.25zM645.12 319.25L691.20 319.25L668.16 359.16zM691.20 319.25L668.16 359.16L714.24 359.16zM1013.76 319.25L1059.84 319.25L1036.80 359.16zM1059.84 319.25L1036.80 359.16L1082.88 359.16zM1336.32 319.25L1382.40 319.25L1359.36 359.16zM1382.40 319.25L1359.36 359.16L1405.44 359.16zM1382.40 319.25L1428.48 319.25L1405.44 359.16zM1428.48 319.25L1474.56 319.25L1451.52 359.16zM1474.56 319.25L1451.52 359.16L1497.60 359.16zM1520.64 319.25L1497.60 359.16L1543.68 359.16zM1128.96 359.16L1105.92 399.06L1152.00 399.06zM1313.28 359.16L1359.36 359.16L1336.32 399.06zM1428.48 399.06L1405.44 438.97L1451.52 438.97zM1474.56 399.06L1451.52 438.97L1497.60 438.97zM898.56 438.97L944.64 438.97L921.60 478.88zM944.64 438.97L921.60 478.88L967.68 478.88zM1036.80 438.97L1013.76 478.88L1059.84 478.88zM967.68 478.88L1013.76 478.88L990.72 518.78zM1290.24 478.88L1336.32 478.88L1313.28 518.78zM1336.32 478.88L1382.40 478.88L1359.36 518.78zM1520.64 478.88L1566.72 478.88L1543.68 518.78zM806.40 518.78L852.48 518.78L829.44 558.69zM1082.88 518.78L1128.96 518.78L1105.92 558.69zM1128.96 518.78L1105.92 558.69L1152.00 558.69zM1175.04 518.78L1152.00 558.69L1198.08 558.69zM1267.20 518.78L1313.28 518.78L1290.24 558.69zM1313.28 518.78L1290.24 558.69L1336.32 558.69zM1359.36 518.78L1336.32 558.69L1382.40 558.69zM1497.60 518.78L1543.68 518.78L1520.64 558.69zM414.72 558.69L391.68 598.60L437.76 598.60zM1244.16 558.69L1221.12 598.60L1267.20 598.60zM1382.40 558.69L1428.48 558.69L1405.44 598.60zM1428.48 558.69L1474.56 558.69L1451.52 598.60zM1474.56 558.69L1451.52 598.60L1497.60 598.60zM69.12 598.60L46.08 638.50L92.16 638.50zM1313.28 598.60L1359.36 598.60L1336.32 638.50zM1405.44 598.60L1382.40 638.50L1428.48 638.50zM1497.60 598.60L1474.56 638.50L1520.64 638.50zM737.28 638.50L783.36 638.50L760.32 678.41zM921.60 638.50L967.68 638.50L944.64 678.41zM1244.16 638.50L1290.24 638.50L1267.20 678.41zM1336.32 638.50L1313.28 678.41L1359.36 678.41zM760.32 678.41L737.28 718.32L783.36 718.32zM1221.12 678.41L1198.08 718.32L1244.16 718.32zM1267.20 678.41L1244.16 718.32L1290.24 718.32zM1267.20 678.41L1313.28 678.41L1290.24 718.32zM1451.52 678.41L1497.60 678.41L1474.56 718.32zM1497.60 678.41L1474.56 718.32L1520.64 718.32zM368.64 718.32L345.60 758.22L391.68 758.22zM460.80 718.32L437.76 758.22L483.84 758.22zM783.36 718.32L760.32 758.22L806.40 758.22zM967.68 718.32L944.64 758.22L990.72 758.22zM1198.08 718.32L1244.16 718.32L1221.12 758.22z"
            data-idx="90">

        </path>
        <g data-idx="92"></g>
    </g>
    <text data-watermark="true" text-anchor="middle" dominant-baseline="middle" stroke-opacity="0.1"
        fill="black" fill-opacity="0.1" stroke="white" stroke-width="1" font-size="15.0" x="768.0"
        y="377.0" data-idx="93" style="opacity: 1; font-size: 15px;">LOADING.IO</text>
</svg>